<svg aria-hidden="true" style="position: absolute; width: 0; height: 0; overflow: hidden;" version="1.1" xmlns="http://www.w3.org/2000/svg" xmlns:xlink="http://www.w3.org/1999/xlink">
<defs>
<symbol id="icon-triangle" viewBox="0 0 26 32">
<title>triangle</title>
<path d="M24.156 14.321c1.218 0.788 1.218 2.57 0 3.358l-20.069 12.985c-1.331 0.861-3.086-0.094-3.086-1.679v-25.97c0-1.585 1.756-2.54 3.086-1.679l20.069 12.985z"></path>
</symbol>
<symbol id="icon-user" viewBox="0 0 24 32">
<title>user</title>
<path d="M12.191 12.19c-3.361 0-6.095-2.734-6.095-6.095s2.734-6.095 6.095-6.095c3.361 0 6.095 2.734 6.095 6.095s-2.734 6.095-6.095 6.095z"></path>
<path d="M19.604 32h-14.827c-0.060 0-0.119-0.005-0.178-0.013-2.665-0.406-4.599-2.351-4.599-4.624v-1.898c0-3.137 1.681-6.057 4.612-8.011 2.175-1.45 4.795-2.216 7.578-2.216 2.711 0 5.278 0.732 7.424 2.117 0.169 0.109 0.319 0.21 0.457 0.308 2.739 1.949 4.31 4.793 4.31 7.802v1.898c0 2.273-1.934 4.217-4.599 4.624-0.058 0.009-0.118 0.013-0.178 0.013z"></path>
</symbol>
<symbol id="icon-selfie" viewBox="0 0 34 32">
<title>selfie</title>
<path d="M13.419 13.419c-1.708 0-3.097-1.621-3.097-3.613s1.389-3.613 3.097-3.613c1.708 0 3.097 1.621 3.097 3.613s-1.389 3.613-3.097 3.613z"></path>
<path d="M22.194 11.355c-1.423 0-2.581-1.158-2.581-2.581s1.158-2.581 2.581-2.581c1.423 0 2.581 1.158 2.581 2.581s-1.158 2.581-2.581 2.581z"></path>
<path d="M25.005 20.645h-3.803c-0.268 0-0.485-0.243-0.485-0.542v-0.375c0-1.639-0.642-3.188-1.761-4.249-0.056-0.053-0.116-0.107-0.187-0.168-0.204-0.175-0.25-0.498-0.105-0.736 0.836-1.37 2.218-2.187 3.698-2.187 2.468 0 4.476 2.246 4.476 5.006v0.902c0 1.151-0.735 2.135-1.747 2.341-0.029 0.006-0.058 0.009-0.087 0.009z"></path>
<path d="M17.186 23.742h-7.533c-0.030 0-0.060-0.002-0.090-0.007-1.354-0.225-2.337-1.303-2.337-2.563v-1.052c0-1.739 0.854-3.357 2.343-4.44 1.105-0.804 2.436-1.228 3.85-1.228 1.377 0 2.682 0.406 3.772 1.173 0.086 0.060 0.162 0.116 0.232 0.171 1.392 1.080 2.19 2.656 2.19 4.325v1.052c0 1.26-0.983 2.337-2.337 2.563-0.030 0.005-0.060 0.007-0.090 0.007z"></path>
<path stroke-linejoin="miter" stroke-linecap="butt" stroke-miterlimit="4" stroke-width="1.0323" d="M1.032 23.27c0-0.472 0.387-0.855 0.865-0.855s0.865 0.383 0.865 0.855v3.421c0 1.417 1.162 2.566 2.595 2.566h3.459c0.478 0 0.865 0.383 0.865 0.855s-0.387 0.855-0.865 0.855h-3.459c-2.388 0-4.324-1.915-4.324-4.277v-3.421z"></path>
<path stroke-linejoin="miter" stroke-linecap="butt" stroke-miterlimit="4" stroke-width="1.0323" d="M33.032 23.27c0-0.472-0.387-0.855-0.865-0.855s-0.865 0.383-0.865 0.855v3.421c0 1.417-1.162 2.566-2.595 2.566h-3.459c-0.478 0-0.865 0.383-0.865 0.855s0.387 0.855 0.865 0.855h3.459c2.388 0 4.324-1.915 4.324-4.277v-3.421z"></path>
<path stroke-linejoin="miter" stroke-linecap="butt" stroke-miterlimit="4" stroke-width="1.0323" d="M1.032 8.73c0 0.472 0.387 0.855 0.865 0.855s0.865-0.383 0.865-0.855v-3.421c0-1.417 1.162-2.566 2.595-2.566h3.459c0.478 0 0.865-0.383 0.865-0.855s-0.387-0.855-0.865-0.855h-3.459c-2.388 0-4.324 1.915-4.324 4.277v3.421z"></path>
<path stroke-linejoin="miter" stroke-linecap="butt" stroke-miterlimit="4" stroke-width="1.0323" d="M33.032 8.73c0 0.472-0.387 0.855-0.865 0.855s-0.865-0.383-0.865-0.855v-3.421c0-1.417-1.162-2.566-2.595-2.566h-3.459c-0.478 0-0.865-0.383-0.865-0.855s0.387-0.855 0.865-0.855h3.459c2.388 0 4.324 1.915 4.324 4.277v3.421z"></path>
</symbol>
<symbol id="icon-bell" viewBox="0 0 26 32">
<title>bell</title>
<path d="M7.385 28.308c0 0.008-0.001 0.016-0.001 0.024 0 2.026 2.204 3.668 4.923 3.668s4.923-1.642 4.923-3.668c0-0.008-0.001-0.016-0.001-0.024h-9.844z"></path>
<path d="M25.535 23.18l-3.555-4.961c0-1.519 0-5.229 0-6.189 0-4.174-3.129-7.653-7.281-8.437v-1.906c0-0.932-0.795-1.687-1.776-1.687s-1.776 0.755-1.776 1.687v1.906c-4.151 0.784-7.281 4.263-7.281 8.437 0 1.634 0 5.242 0 6.189l-3.555 4.961c-0.374 0.522-0.414 1.199-0.103 1.758s0.922 0.908 1.587 0.908h22.254c0.665 0 1.276-0.35 1.587-0.908s0.272-1.235-0.103-1.758z"></path>
</symbol>
<symbol id="icon-whatsapp" viewBox="0 0 32 32">
<title>whatsapp</title>
<path d="M16 32c8.837 0 16-7.163 16-16s-7.163-16-16-16c-8.837 0-16 7.163-16 16s7.163 16 16 16z"></path>
<path fill="#fff" style="fill: var(--color2, #fff)" d="M24.889 15.794c0 4.305-3.516 7.794-7.855 7.794-1.377 0-2.671-0.352-3.797-0.97l-4.349 1.382 1.418-4.182c-0.715-1.174-1.127-2.552-1.127-4.024 0-4.305 3.517-7.794 7.855-7.794s7.855 3.489 7.855 7.794zM17.034 9.241c-3.642 0-6.604 2.94-6.604 6.553 0 1.434 0.467 2.762 1.258 3.842l-0.825 2.434 2.538-0.807c1.043 0.685 2.292 1.084 3.633 1.084 3.641 0 6.604-2.939 6.604-6.552s-2.962-6.553-6.604-6.553zM20.736 17.417c0.135 0.065 0.226 0.108 0.265 0.172 0.048 0.080 0.048 0.462-0.112 0.909-0.161 0.446-0.947 0.876-1.3 0.908-0.060 0.006-0.111 0.017-0.162 0.030-0.249 0.060-0.526 0.126-2.149-0.507-1.809-0.707-3.001-2.462-3.247-2.824-0.020-0.030-0.034-0.050-0.041-0.060v0c-0.098-0.129-0.786-1.036-0.786-1.975 0-0.879 0.435-1.341 0.636-1.553 0.014-0.015 0.026-0.028 0.038-0.040 0.177-0.191 0.385-0.239 0.514-0.239 0.066 0 0.133 0.004 0.197 0.008 0.060 0.004 0.118 0.008 0.172 0.008 0.013 0 0.028-0.001 0.042-0.002 0.109-0.007 0.25-0.016 0.391 0.32 0.051 0.123 0.126 0.303 0.205 0.493 0.168 0.405 0.356 0.86 0.389 0.925 0.048 0.096 0.081 0.207 0.016 0.335-0.009 0.018-0.018 0.036-0.026 0.052-0.049 0.099-0.084 0.171-0.167 0.267-0.032 0.037-0.065 0.077-0.098 0.117-0.066 0.080-0.133 0.161-0.191 0.218-0.096 0.095-0.197 0.198-0.084 0.389s0.499 0.817 1.071 1.323c0.616 0.545 1.151 0.775 1.421 0.891 0.053 0.023 0.095 0.041 0.127 0.057 0.193 0.096 0.305 0.080 0.417-0.048s0.482-0.558 0.61-0.749c0.128-0.191 0.257-0.159 0.433-0.095s1.123 0.526 1.316 0.621c0.037 0.018 0.072 0.035 0.104 0.051z"></path>
</symbol>
<symbol id="icon-instagram" viewBox="0 0 32 32">
<title>instagram</title>
<path d="M16 32c8.837 0 16-7.163 16-16s-7.163-16-16-16c-8.837 0-16 7.163-16 16s7.163 16 16 16z"></path>
<path fill="#fff" style="fill: var(--color2, #fff)" d="M12.262 6.222h8.364c2.841 0 5.152 2.311 5.151 5.151v8.364c0 2.84-2.311 5.151-5.151 5.151h-8.364c-2.84 0-5.151-2.311-5.151-5.151v-8.364c0-2.84 2.311-5.151 5.151-5.151zM20.627 23.233c1.927 0 3.495-1.568 3.495-3.495v0-8.364c0-1.927-1.568-3.495-3.495-3.495h-8.364c-1.927 0-3.495 1.568-3.495 3.495v8.364c0 1.927 1.568 3.495 3.495 3.495h8.364z"></path>
<path fill="#fff" style="fill: var(--color2, #fff)" d="M11.556 15.556c0-2.696 2.193-4.889 4.889-4.889s4.889 2.193 4.889 4.889c0 2.696-2.193 4.889-4.889 4.889s-4.889-2.193-4.889-4.889zM13.239 15.556c0 1.767 1.438 3.205 3.205 3.205s3.206-1.438 3.206-3.205c0-1.768-1.438-3.206-3.206-3.206s-3.206 1.438-3.206 3.206z"></path>
<path fill="#fff" style="fill: var(--color2, #fff)" d="M21.778 8.889c-0.35 0-0.694 0.142-0.942 0.39-0.249 0.247-0.392 0.591-0.392 0.943 0 0.35 0.143 0.695 0.392 0.943 0.247 0.247 0.591 0.39 0.942 0.39 0.352 0 0.695-0.143 0.943-0.39s0.39-0.593 0.39-0.943c0-0.352-0.142-0.696-0.39-0.943-0.247-0.249-0.591-0.39-0.943-0.39z"></path>
</symbol>
<symbol id="icon-share" viewBox="0 0 32 32">
<title>share</title>
<path d="M16 32c8.837 0 16-7.163 16-16s-7.163-16-16-16c-8.837 0-16 7.163-16 16s7.163 16 16 16z"></path>
<path fill="#fff" style="fill: var(--color2, #fff)" d="M19.635 18.737c-0.738 0-1.402 0.316-1.873 0.82l-5.508-2.743c0.019-0.128 0.032-0.259 0.032-0.393 0-0.131-0.012-0.258-0.030-0.384l5.499-2.712c0.472 0.508 1.138 0.827 1.88 0.827 1.429 0 2.587-1.178 2.587-2.631s-1.158-2.632-2.587-2.632c-1.429 0-2.588 1.178-2.588 2.632 0 0.131 0.012 0.258 0.030 0.384l-5.499 2.712c-0.472-0.508-1.138-0.827-1.88-0.827-1.43 0-2.588 1.178-2.588 2.631s1.158 2.632 2.587 2.632c0.738 0 1.402-0.316 1.873-0.82l5.507 2.743c-0.019 0.128-0.032 0.259-0.032 0.393 0 1.454 1.158 2.632 2.587 2.632s2.588-1.178 2.588-2.632c0-1.454-1.158-2.631-2.587-2.631z"></path>
</symbol>
<symbol id="icon-twitter" viewBox="0 0 32 32">
<title>twitter</title>
<path d="M16 32c8.837 0 16-7.163 16-16s-7.163-16-16-16c-8.837 0-16 7.163-16 16s7.163 16 16 16z"></path>
<path fill="#fff" style="fill: var(--color2, #fff)" d="M24 11.929c-0.523 0.214-1.085 0.359-1.675 0.424 0.603-0.333 1.064-0.862 1.282-1.489-0.565 0.309-1.189 0.533-1.854 0.654-0.532-0.524-1.29-0.851-2.129-0.851-1.611 0-2.918 1.206-2.918 2.693 0 0.211 0.026 0.417 0.076 0.614-2.424-0.112-4.574-1.185-6.013-2.815-0.252 0.397-0.395 0.86-0.395 1.354 0 0.935 0.515 1.759 1.297 2.242-0.478-0.015-0.928-0.136-1.322-0.338v0.034c0 1.305 1.006 2.394 2.34 2.641-0.244 0.061-0.502 0.094-0.769 0.094-0.188 0-0.371-0.017-0.549-0.050 0.371 1.071 1.449 1.849 2.725 1.871-0.998 0.722-2.256 1.151-3.623 1.151-0.236 0-0.468-0.013-0.696-0.037 1.291 0.766 2.824 1.212 4.472 1.212 5.367 0 8.301-4.105 8.301-7.664l-0.010-0.349c0.573-0.377 1.069-0.852 1.459-1.392z"></path>
</symbol>
<symbol id="icon-facebook" viewBox="0 0 32 32">
<title>facebook</title>
<path d="M16 32c8.837 0 16-7.163 16-16s-7.163-16-16-16c-8.837 0-16 7.163-16 16s7.163 16 16 16z"></path>
<path fill="#fff" style="fill: var(--color2, #fff)" d="M12.7 16.464h1.736v6.418c0 0.127 0.114 0.229 0.255 0.229h2.943c0.141 0 0.255-0.103 0.255-0.229v-6.388h1.996c0.13 0 0.239-0.087 0.254-0.203l0.303-2.363c0.008-0.065-0.015-0.13-0.063-0.179s-0.118-0.077-0.191-0.077h-2.299v-1.481c0-0.447 0.268-0.673 0.796-0.673 0.075 0 1.503 0 1.503 0 0.141 0 0.255-0.103 0.255-0.229v-2.169c0-0.127-0.114-0.229-0.255-0.229h-2.071c-0.015-0.001-0.047-0.002-0.095-0.002-0.359 0-1.609 0.063-2.595 0.879-1.093 0.903-0.941 1.985-0.905 2.173v1.732h-1.822c-0.141 0-0.255 0.103-0.255 0.229v2.333c0 0.127 0.114 0.229 0.255 0.229z"></path>
</symbol>
<symbol id="icon-telegram" viewBox="0 0 32 32">
<title>telegram</title>
<path d="M16 32c8.837 0 16-7.163 16-16s-7.163-16-16-16c-8.837 0-16 7.163-16 16s7.163 16 16 16z"></path>
<path fill="#fff" style="fill: var(--color2, #fff)" d="M11.749 17.488l-3.482-1.317c-0.354-0.134-0.357-0.64-0.004-0.778l14.29-5.587c0.303-0.119 0.615 0.15 0.549 0.473l-2.564 12.501c-0.060 0.295-0.402 0.429-0.643 0.251l-3.501-2.576c-0.213-0.156-0.502-0.148-0.706 0.020l-1.941 1.603c-0.225 0.187-0.565 0.083-0.651-0.199l-1.348-4.392zM19.684 12.54l-6.805 4.247c-0.261 0.163-0.384 0.482-0.299 0.781l0.736 2.62c0.052 0.186 0.318 0.167 0.343-0.025l0.191-1.437c0.036-0.27 0.163-0.52 0.361-0.706l5.616-5.29c0.105-0.099-0.021-0.266-0.143-0.19z"></path>
</symbol>
<symbol id="icon-vk" viewBox="0 0 32 32">
<title>vk</title>
<path d="M16 32c8.837 0 16-7.163 16-16s-7.163-16-16-16c-8.837 0-16 7.163-16 16s7.163 16 16 16z"></path>
<path fill="#fff" style="fill: var(--color2, #fff)" d="M23.031 19.669c-0.018-0.037-0.035-0.067-0.051-0.091-0.262-0.438-0.763-0.976-1.503-1.613l-0.032-0.030h-0.008c-0.336-0.297-0.548-0.497-0.637-0.599-0.163-0.195-0.199-0.392-0.11-0.591 0.063-0.151 0.299-0.469 0.708-0.956 0.215-0.258 0.386-0.465 0.511-0.62 0.907-1.119 1.301-1.835 1.18-2.146l-0.047-0.073c-0.032-0.044-0.113-0.084-0.244-0.12s-0.299-0.043-0.504-0.018l-2.266 0.014c-0.037-0.012-0.089-0.011-0.157 0.004s-0.102 0.022-0.102 0.022l-0.039 0.018-0.031 0.022c-0.026 0.014-0.055 0.040-0.087 0.077s-0.058 0.079-0.078 0.128c-0.247 0.589-0.527 1.136-0.842 1.643-0.194 0.302-0.372 0.563-0.535 0.785s-0.299 0.384-0.409 0.489c-0.11 0.105-0.21 0.188-0.299 0.252s-0.157 0.090-0.204 0.080c-0.047-0.010-0.092-0.020-0.134-0.029-0.073-0.044-0.132-0.103-0.177-0.179s-0.075-0.17-0.090-0.285c-0.016-0.114-0.025-0.213-0.028-0.296s-0.001-0.2 0.004-0.351c0.005-0.151 0.008-0.253 0.008-0.307 0-0.185 0.004-0.386 0.012-0.602s0.014-0.388 0.020-0.515c0.005-0.127 0.008-0.26 0.008-0.402s-0.009-0.252-0.028-0.332c-0.018-0.080-0.046-0.158-0.082-0.234s-0.091-0.134-0.161-0.175c-0.071-0.041-0.159-0.074-0.264-0.099-0.278-0.058-0.632-0.090-1.062-0.095-0.976-0.010-1.602 0.049-1.88 0.175-0.11 0.053-0.21 0.127-0.299 0.219-0.094 0.107-0.108 0.165-0.039 0.175 0.315 0.044 0.537 0.148 0.669 0.314l0.047 0.088c0.037 0.063 0.073 0.175 0.11 0.336s0.060 0.338 0.071 0.533c0.026 0.355 0.026 0.66 0 0.913s-0.051 0.45-0.075 0.591c-0.024 0.141-0.059 0.255-0.106 0.343s-0.079 0.141-0.094 0.161-0.029 0.032-0.039 0.037c-0.068 0.024-0.139 0.037-0.212 0.037s-0.163-0.034-0.268-0.102c-0.105-0.068-0.214-0.162-0.326-0.281s-0.24-0.286-0.382-0.5c-0.142-0.214-0.288-0.467-0.441-0.759l-0.126-0.212c-0.079-0.136-0.186-0.335-0.323-0.595s-0.257-0.512-0.362-0.756c-0.042-0.102-0.105-0.18-0.189-0.234l-0.039-0.022c-0.026-0.019-0.068-0.040-0.126-0.062s-0.118-0.038-0.181-0.047l-2.156 0.014c-0.22 0-0.37 0.046-0.448 0.139l-0.031 0.044c-0.016 0.024-0.024 0.063-0.024 0.117s0.016 0.119 0.047 0.197c0.315 0.686 0.657 1.348 1.027 1.986s0.691 1.151 0.964 1.54c0.273 0.389 0.551 0.757 0.834 1.102s0.471 0.567 0.563 0.664c0.092 0.098 0.164 0.17 0.216 0.219l0.197 0.175c0.126 0.117 0.311 0.257 0.555 0.42s0.514 0.324 0.81 0.482c0.296 0.158 0.641 0.287 1.035 0.387s0.776 0.14 1.149 0.121h0.905c0.184-0.015 0.323-0.068 0.417-0.161l0.031-0.037c0.021-0.029 0.041-0.074 0.059-0.135s0.028-0.128 0.028-0.201c-0.005-0.209 0.012-0.398 0.051-0.566s0.084-0.294 0.134-0.38c0.050-0.085 0.106-0.157 0.169-0.215s0.108-0.094 0.134-0.106c0.026-0.012 0.047-0.021 0.063-0.026 0.126-0.039 0.274-0.001 0.445 0.113s0.33 0.256 0.48 0.423c0.149 0.168 0.329 0.356 0.539 0.566s0.393 0.365 0.551 0.467l0.157 0.088c0.105 0.058 0.241 0.112 0.409 0.161s0.314 0.061 0.441 0.036l2.014-0.029c0.199 0 0.354-0.031 0.464-0.091s0.176-0.128 0.197-0.201c0.021-0.073 0.022-0.156 0.004-0.248s-0.037-0.157-0.055-0.193z"></path>
</symbol>
<symbol id="icon-linkedin" viewBox="0 0 32 32">
<title>linkedin</title>
<path d="M16 32c8.837 0 16-7.163 16-16s-7.163-16-16-16c-8.837 0-16 7.163-16 16s7.163 16 16 16z"></path>
<path fill="#fff" style="fill: var(--color2, #fff)" d="M11.566 8.889c-1.081 0-1.788 0.768-1.788 1.778 0 0.987 0.686 1.778 1.747 1.778h0.021c1.102 0 1.788-0.79 1.788-1.778-0.021-1.010-0.686-1.778-1.767-1.778z"></path>
<path fill="#fff" style="fill: var(--color2, #fff)" d="M9.778 13.333h3.556v8h-3.556v-8z"></path>
<path fill="#fff" style="fill: var(--color2, #fff)" d="M20.648 13.333c-1.571 0-2.624 1.317-2.624 1.317v-1.134h-2.912v7.817h2.912v-4.365c0-0.234 0.019-0.467 0.096-0.634 0.21-0.467 0.689-0.95 1.494-0.95 1.054 0 1.475 0.717 1.475 1.768v4.182h2.912v-4.482c0-2.401-1.437-3.518-3.352-3.518z"></path>
</symbol>
<symbol id="icon-magnifying-glass" viewBox="0 0 32 32">
<title>magnifying-glass</title>
<path d="M31.413 28.741l-8.761-8.765c1.571-2.142 2.412-4.732 2.4-7.387-0.030-6.933-5.637-12.549-12.57-12.589-3.318-0.015-6.504 1.298-8.848 3.645s-3.653 5.535-3.633 8.853c0.030 6.934 5.638 12.55 12.571 12.59 2.667 0.011 5.266-0.84 7.409-2.426l0.009-0.007 8.753 8.758c0.473 0.496 1.178 0.697 1.842 0.525s1.182-0.691 1.354-1.355-0.030-1.369-0.527-1.842zM12.563 22.578c-5.546-0.032-10.033-4.524-10.057-10.071-0.015-2.654 1.032-5.204 2.907-7.082s4.423-2.928 7.077-2.917c5.546 0.032 10.033 4.524 10.057 10.071 0.015 2.654-1.032 5.204-2.907 7.082s-4.423 2.928-7.077 2.917z"></path>
</symbol>
<symbol id="icon-cross" viewBox="0 0 32 32">
<title>cross</title>
<path d="M16 32c8.837 0 16-7.163 16-16s-7.163-16-16-16c-8.837 0-16 7.163-16 16s7.163 16 16 16z"></path>
<path fill="#fff" style="fill: var(--color2, #fff)" d="M23.020 8.473c0.893 0.893 0.893 2.34 0 3.232l-11.314 11.314c-0.893 0.893-2.34 0.893-3.232 0s-0.893-2.34 0-3.233l11.314-11.314c0.893-0.893 2.34-0.893 3.233 0z"></path>
<path fill="#fff" style="fill: var(--color2, #fff)" d="M8.474 8.473c-0.893 0.893-0.893 2.34 0 3.232l11.314 11.314c0.893 0.893 2.34 0.893 3.233 0s0.893-2.34 0-3.233l-11.314-11.314c-0.893-0.893-2.34-0.893-3.232 0z"></path>
</symbol>
<symbol id="icon-google" viewBox="0 0 32 32">
<title>google</title>
<path fill-rule="evenodd" clip-rule="evenodd" d="M8 19.7388L6.74349 23.9135L2.15098 24C0.778497 21.7343 0 19.1421 0 16.3875C0 13.7238 0.727875 11.2118 2.01808 9H2.01907L6.10769 9.66714L7.89876 13.2842C7.52389 14.2569 7.31957 15.301 7.31957 16.3875C7.31971 17.5667 7.55971 18.6964 8 19.7388Z" fill="#FBBB00"/>
<path fill-rule="evenodd" clip-rule="evenodd" d="M33.6963 12C33.8959 13.0638 34 14.1625 34 15.2854C34 16.5445 33.8692 17.7726 33.6199 18.9573C32.7737 22.9887 30.5628 26.5089 27.4999 29L27.4989 28.999L22.5393 28.743L21.8374 24.3096C23.8697 23.1037 25.458 21.2165 26.2947 18.9573H17V12H26.4303H33.6963Z" fill="#518EF8"/>
<path fill-rule="evenodd" clip-rule="evenodd" d="M26.9991 29.3824L27 29.3833C24.1568 31.6461 20.5451 33 16.6135 33C10.2954 33 4.80221 29.5034 2 24.3577L7.37649 20C8.77757 23.7024 12.3847 26.338 16.6135 26.338C18.4312 26.338 20.134 25.8515 21.5953 25.0021L26.9991 29.3824Z" fill="#28B446"/>
<path fill-rule="evenodd" clip-rule="evenodd" d="M27 3.70947L21.6944 7.98288C20.2015 7.06483 18.4369 6.53449 16.5463 6.53449C12.2773 6.53449 8.64997 9.23823 7.33619 13L2.0009 8.70267H2C4.7257 3.53241 10.2166 0 16.5463 0C20.5201 0 24.1636 1.39262 27 3.70947Z" fill="#F14336"/>
</symbol>

<symbol id="icon-contacts-chevron-left" viewBox="0 0 32 32">
<title>contacts-chevron-left</title>
<path d="M22.561 31.669c0.218 0.221 0.491 0.331 0.791 0.331s0.573-0.11 0.791-0.331c0.436-0.441 0.436-1.159 0-1.6l-13.913-14.069 13.913-14.069c0.436-0.441 0.436-1.159 0-1.6s-1.146-0.441-1.582 0l-14.704 14.869c-0.436 0.441-0.436 1.159 0 1.6l14.704 14.869z"></path>
</symbol>
<symbol id="icon-contacts-chevron-right" viewBox="0 0 32 32">
<title>contacts-chevron-right</title>
<path d="M9.439 31.669c-0.218 0.221-0.491 0.331-0.791 0.331s-0.573-0.11-0.791-0.331c-0.436-0.441-0.436-1.159 0-1.6l13.913-14.069-13.913-14.069c-0.436-0.441-0.436-1.159 0-1.6s1.146-0.441 1.582 0l14.704 14.869c0.436 0.441 0.436 1.159 0 1.6l-14.704 14.869z"></path>
</symbol>
<symbol id="icon-contacts-envelop" viewBox="0 0 32 32">
<title>contacts-envelop</title>
<path d="M2.518 5.912l11.467 9.249c0.52 0.419 1.237 0.605 1.933 0.57 0.695 0.035 1.412-0.15 1.931-0.57l11.467-9.249c0.919-0.737 0.711-1.341-0.455-1.341h-25.886c-1.167 0-1.375 0.604-0.458 1.341z"></path>
<path d="M30.145 8.352l-12.532 9.687c-0.468 0.358-1.082 0.533-1.694 0.525-0.613 0.008-1.226-0.168-1.695-0.525l-12.534-9.687c-0.93-0.718-1.691-0.333-1.691 0.855v15.894c0 1.188 0.955 2.161 2.122 2.161h27.592c1.167 0 2.122-0.973 2.122-2.161v-15.894c0-1.188-0.761-1.573-1.691-0.855z"></path>
</symbol>
<symbol id="icon-contacts-menu" viewBox="0 0 32 32">
<title>contacts-menu</title>
<path d="M3.048 12.952h25.905c1.683 0 3.048 1.364 3.048 3.048s-1.364 3.048-3.048 3.048h-25.905c-1.683 0-3.048-1.364-3.048-3.048s1.364-3.048 3.048-3.048z"></path>
<path d="M3.048 0.762h25.905c1.683 0 3.048 1.364 3.048 3.048s-1.364 3.048-3.048 3.048h-25.905c-1.683 0-3.048-1.364-3.048-3.048s1.364-3.048 3.048-3.048z"></path>
<path d="M3.048 25.143h25.905c1.683 0 3.048 1.364 3.048 3.048s-1.364 3.048-3.048 3.048h-25.905c-1.683 0-3.048-1.364-3.048-3.048s1.364-3.048 3.048-3.048z"></path>
</symbol>
<symbol id="icon-contacts-pause" viewBox="0 0 32 32">
<title>contacts-pause</title>
<path d="M3.2 0h25.6c1.767 0 3.2 1.433 3.2 3.2v6.4c0 1.767-1.433 3.2-3.2 3.2h-25.6c-1.767 0-3.2-1.433-3.2-3.2v-6.4c0-1.767 1.433-3.2 3.2-3.2z"></path>
<path d="M3.2 19.2h25.6c1.767 0 3.2 1.433 3.2 3.2v6.4c0 1.767-1.433 3.2-3.2 3.2h-25.6c-1.767 0-3.2-1.433-3.2-3.2v-6.4c0-1.767 1.433-3.2 3.2-3.2z"></path>
</symbol>

</defs>
</svg>
